<?xml version="1.0" encoding="utf-8"?>
<!-- Generator: Adobe Illustrator 16.0.0, SVG Export Plug-In . SVG Version: 6.00 Build 0)  -->
<!DOCTYPE svg PUBLIC "-//W3C//DTD SVG 1.1//EN" "http://www.w3.org/Graphics/SVG/1.1/DTD/svg11.dtd">
<svg version="1.1" id="Layer_1" xmlns="http://www.w3.org/2000/svg" xmlns:xlink="http://www.w3.org/1999/xlink" x="0px" y="0px"
	 width="1947.195px" height="483.049px" viewBox="0 0 1947.195 483.049" enable-background="new 0 0 1947.195 483.049"
	 xml:space="preserve">
<polygon fill="#14988B" points="384.037,423.419 414.965,470.673 15.28,470.673 301.23,19.329 587.18,470.673 531.741,470.673 
	301.23,105.755 99.902,423.419 "/>
<path fill="#14988B" d="M1708.747,14.481c111.645,0,224.521,93.586,224.521,229.346c0.938,82.76-63.666,226.995-235.359,226.995
	c-129.64,0-225.893-122.99-221.557-228.17c3.47-73.096,32.084-116.375,32.084-116.375h55.498c0,0-40.756,44.658-41.189,116.375
	c-2.602,93.906,76.743,181.056,174.729,183.223c119.666,0,189.472-90.183,190.339-182.048
	C1877.407,66.444,1714.817,59.94,1714.817,59.94h-420.565v410.882h-45.526V59.796H830.329
	c-108.972,3.757-176.031,98.276-174.875,182.856c-4.914,85.67,71.973,181.923,178.054,183.079
	c138.743,0,176.32-121.69,176.32-121.69h47.114c0,24.281-59.832,166.781-225.458,166.781
	c-117.065-2.602-221.411-102.989-221.411-231.816c0-128.828,116.197-225.169,221.989-224.521L1708.747,14.481z"/>
</svg>
